<mxfile host="app.diagrams.net" agent="Mozilla/5.0 (Windows NT 10.0; Win64; x64) AppleWebKit/537.36 (KHTML, like Gecko) Chrome/130.0.0.0 Safari/537.36" version="24.8.6">
  <diagram name="Page-1" id="VyYkG-24HqSiHIFtnf7p">
    <mxGraphModel dx="1992" dy="838" grid="1" gridSize="10" guides="1" tooltips="1" connect="1" arrows="1" fold="1" page="1" pageScale="1" pageWidth="827" pageHeight="1169" math="0" shadow="0">
      <root>
        <mxCell id="0" />
        <mxCell id="1" parent="0" />
        <mxCell id="ubFg8cCTz5OX0tY9X4NB-13" value="&lt;span id=&quot;docs-internal-guid-d25b3ad8-7fff-eb38-3b77-8054913d3f93&quot; style=&quot;font-weight:normal;&quot;&gt;&lt;span style=&quot;font-size: 12pt; font-family: Arial, sans-serif; background-color: transparent; font-variant-numeric: normal; font-variant-east-asian: normal; font-variant-alternates: normal; font-variant-position: normal; vertical-align: baseline; white-space: pre-wrap;&quot;&gt;InstructorID &lt;/span&gt;&lt;/span&gt;" style="shape=table;startSize=30;container=1;collapsible=1;childLayout=tableLayout;fixedRows=1;rowLines=0;fontStyle=1;align=center;resizeLast=1;html=1;" vertex="1" parent="1">
          <mxGeometry x="30" y="280" width="480" height="230" as="geometry" />
        </mxCell>
        <mxCell id="ubFg8cCTz5OX0tY9X4NB-14" value="" style="shape=tableRow;horizontal=0;startSize=0;swimlaneHead=0;swimlaneBody=0;fillColor=none;collapsible=0;dropTarget=0;points=[[0,0.5],[1,0.5]];portConstraint=eastwest;top=0;left=0;right=0;bottom=1;" vertex="1" parent="ubFg8cCTz5OX0tY9X4NB-13">
          <mxGeometry y="30" width="480" height="50" as="geometry" />
        </mxCell>
        <mxCell id="ubFg8cCTz5OX0tY9X4NB-15" value="PK" style="shape=partialRectangle;connectable=0;fillColor=none;top=0;left=0;bottom=0;right=0;fontStyle=1;overflow=hidden;whiteSpace=wrap;html=1;" vertex="1" parent="ubFg8cCTz5OX0tY9X4NB-14">
          <mxGeometry width="30" height="50" as="geometry">
            <mxRectangle width="30" height="50" as="alternateBounds" />
          </mxGeometry>
        </mxCell>
        <mxCell id="ubFg8cCTz5OX0tY9X4NB-16" value="&lt;span id=&quot;docs-internal-guid-5f71bf10-7fff-0b4f-48bb-a60be18ed631&quot; style=&quot;&quot;&gt;&lt;span style=&quot;font-size: 12pt; font-family: Arial, sans-serif; background-color: transparent; font-variant-numeric: normal; font-variant-east-asian: normal; font-variant-alternates: normal; font-variant-position: normal; text-decoration-line: none; vertical-align: baseline; white-space-collapse: preserve;&quot;&gt;InstructorID INT AUTO_INCREMENT PRIMARY KEY,&lt;/span&gt;&lt;span style=&quot;font-size: 12pt; font-family: Arial, sans-serif; background-color: transparent; font-variant-numeric: normal; font-variant-east-asian: normal; font-variant-alternates: normal; font-variant-position: normal; text-decoration-line: none; vertical-align: baseline; white-space-collapse: preserve;&quot;&gt;&lt;span style=&quot;text-wrap-mode: nowrap;&quot; class=&quot;Apple-tab-span&quot;&gt;&#x9;&lt;/span&gt;&lt;/span&gt;&lt;/span&gt;" style="shape=partialRectangle;connectable=0;fillColor=none;top=0;left=0;bottom=0;right=0;align=left;spacingLeft=6;fontStyle=5;overflow=hidden;whiteSpace=wrap;html=1;" vertex="1" parent="ubFg8cCTz5OX0tY9X4NB-14">
          <mxGeometry x="30" width="450" height="50" as="geometry">
            <mxRectangle width="450" height="50" as="alternateBounds" />
          </mxGeometry>
        </mxCell>
        <mxCell id="ubFg8cCTz5OX0tY9X4NB-17" value="" style="shape=tableRow;horizontal=0;startSize=0;swimlaneHead=0;swimlaneBody=0;fillColor=none;collapsible=0;dropTarget=0;points=[[0,0.5],[1,0.5]];portConstraint=eastwest;top=0;left=0;right=0;bottom=0;" vertex="1" parent="ubFg8cCTz5OX0tY9X4NB-13">
          <mxGeometry y="80" width="480" height="100" as="geometry" />
        </mxCell>
        <mxCell id="ubFg8cCTz5OX0tY9X4NB-18" value="" style="shape=partialRectangle;connectable=0;fillColor=none;top=0;left=0;bottom=0;right=0;editable=1;overflow=hidden;whiteSpace=wrap;html=1;" vertex="1" parent="ubFg8cCTz5OX0tY9X4NB-17">
          <mxGeometry width="30" height="100" as="geometry">
            <mxRectangle width="30" height="100" as="alternateBounds" />
          </mxGeometry>
        </mxCell>
        <mxCell id="ubFg8cCTz5OX0tY9X4NB-19" value="&lt;span id=&quot;docs-internal-guid-3f05a4d0-7fff-b908-06cd-d9424c4733d5&quot;&gt;&lt;p style=&quot;line-height:1.38;margin-top:0pt;margin-bottom:0pt;&quot; dir=&quot;ltr&quot;&gt;&lt;span style=&quot;font-size: 12pt; font-family: Arial, sans-serif; background-color: transparent; font-variant-numeric: normal; font-variant-east-asian: normal; font-variant-alternates: normal; font-variant-position: normal; vertical-align: baseline; white-space-collapse: preserve;&quot;&gt;&amp;nbsp;   Name VARCHAR(255) NOT NULL&lt;/span&gt;&lt;span style=&quot;font-size: 12pt; font-family: Arial, sans-serif; background-color: transparent; font-variant-numeric: normal; font-variant-east-asian: normal; font-variant-alternates: normal; font-variant-position: normal; vertical-align: baseline; white-space-collapse: preserve;&quot;&gt;&lt;span style=&quot;text-wrap-mode: nowrap;&quot; class=&quot;Apple-tab-span&quot;&gt;&#x9;&lt;/span&gt;&lt;/span&gt;&lt;/p&gt;&lt;p style=&quot;line-height:1.38;margin-top:0pt;margin-bottom:0pt;&quot; dir=&quot;ltr&quot;&gt;&lt;span style=&quot;font-size: 12pt; font-family: Arial, sans-serif; background-color: transparent; font-variant-numeric: normal; font-variant-east-asian: normal; font-variant-alternates: normal; font-variant-position: normal; vertical-align: baseline; white-space-collapse: preserve;&quot;&gt;&amp;nbsp;&amp;nbsp;&amp;nbsp;&amp;nbsp;Email VARCHAR(255) NOT NULL UNIQUE&lt;/span&gt;&lt;/p&gt;&lt;p style=&quot;line-height:1.38;margin-top:0pt;margin-bottom:0pt;&quot; dir=&quot;ltr&quot;&gt;&lt;span style=&quot;font-size: 12pt; font-family: Arial, sans-serif; background-color: transparent; font-variant-numeric: normal; font-variant-east-asian: normal; font-variant-alternates: normal; font-variant-position: normal; vertical-align: baseline; white-space-collapse: preserve;&quot;&gt;&amp;nbsp;&amp;nbsp;&amp;nbsp;&amp;nbsp;Phone VARCHAR(15)&lt;/span&gt;&lt;/p&gt;&lt;span style=&quot;font-size: 12pt; font-family: Arial, sans-serif; background-color: transparent; font-variant-numeric: normal; font-variant-east-asian: normal; font-variant-alternates: normal; font-variant-position: normal; vertical-align: baseline; white-space-collapse: preserve;&quot;&gt;&amp;nbsp;&amp;nbsp;&amp;nbsp;&amp;nbsp;Department VARCHAR(50)&lt;/span&gt;&lt;/span&gt;" style="shape=partialRectangle;connectable=0;fillColor=none;top=0;left=0;bottom=0;right=0;align=left;spacingLeft=6;overflow=hidden;whiteSpace=wrap;html=1;" vertex="1" parent="ubFg8cCTz5OX0tY9X4NB-17">
          <mxGeometry x="30" width="450" height="100" as="geometry">
            <mxRectangle width="450" height="100" as="alternateBounds" />
          </mxGeometry>
        </mxCell>
        <mxCell id="ubFg8cCTz5OX0tY9X4NB-20" value="" style="shape=tableRow;horizontal=0;startSize=0;swimlaneHead=0;swimlaneBody=0;fillColor=none;collapsible=0;dropTarget=0;points=[[0,0.5],[1,0.5]];portConstraint=eastwest;top=0;left=0;right=0;bottom=0;" vertex="1" parent="ubFg8cCTz5OX0tY9X4NB-13">
          <mxGeometry y="180" width="480" height="30" as="geometry" />
        </mxCell>
        <mxCell id="ubFg8cCTz5OX0tY9X4NB-21" value="" style="shape=partialRectangle;connectable=0;fillColor=none;top=0;left=0;bottom=0;right=0;editable=1;overflow=hidden;whiteSpace=wrap;html=1;" vertex="1" parent="ubFg8cCTz5OX0tY9X4NB-20">
          <mxGeometry width="30" height="30" as="geometry">
            <mxRectangle width="30" height="30" as="alternateBounds" />
          </mxGeometry>
        </mxCell>
        <mxCell id="ubFg8cCTz5OX0tY9X4NB-22" value="" style="shape=partialRectangle;connectable=0;fillColor=none;top=0;left=0;bottom=0;right=0;align=left;spacingLeft=6;overflow=hidden;whiteSpace=wrap;html=1;" vertex="1" parent="ubFg8cCTz5OX0tY9X4NB-20">
          <mxGeometry x="30" width="450" height="30" as="geometry">
            <mxRectangle width="450" height="30" as="alternateBounds" />
          </mxGeometry>
        </mxCell>
        <mxCell id="ubFg8cCTz5OX0tY9X4NB-23" value="" style="shape=tableRow;horizontal=0;startSize=0;swimlaneHead=0;swimlaneBody=0;fillColor=none;collapsible=0;dropTarget=0;points=[[0,0.5],[1,0.5]];portConstraint=eastwest;top=0;left=0;right=0;bottom=0;" vertex="1" parent="ubFg8cCTz5OX0tY9X4NB-13">
          <mxGeometry y="210" width="480" height="20" as="geometry" />
        </mxCell>
        <mxCell id="ubFg8cCTz5OX0tY9X4NB-24" value="" style="shape=partialRectangle;connectable=0;fillColor=none;top=0;left=0;bottom=0;right=0;editable=1;overflow=hidden;whiteSpace=wrap;html=1;" vertex="1" parent="ubFg8cCTz5OX0tY9X4NB-23">
          <mxGeometry width="30" height="20" as="geometry">
            <mxRectangle width="30" height="20" as="alternateBounds" />
          </mxGeometry>
        </mxCell>
        <mxCell id="ubFg8cCTz5OX0tY9X4NB-25" value="" style="shape=partialRectangle;connectable=0;fillColor=none;top=0;left=0;bottom=0;right=0;align=left;spacingLeft=6;overflow=hidden;whiteSpace=wrap;html=1;" vertex="1" parent="ubFg8cCTz5OX0tY9X4NB-23">
          <mxGeometry x="30" width="450" height="20" as="geometry">
            <mxRectangle width="450" height="20" as="alternateBounds" />
          </mxGeometry>
        </mxCell>
        <mxCell id="ubFg8cCTz5OX0tY9X4NB-26" value="&lt;span id=&quot;docs-internal-guid-68d330e4-7fff-f4f8-193e-1dccd924a1f2&quot; style=&quot;font-weight:normal;&quot;&gt;&lt;span style=&quot;font-size: 12pt; font-family: Arial, sans-serif; background-color: transparent; font-variant-numeric: normal; font-variant-east-asian: normal; font-variant-alternates: normal; font-variant-position: normal; vertical-align: baseline; white-space: pre-wrap;&quot;&gt;Course&lt;/span&gt;&lt;/span&gt;" style="shape=table;startSize=30;container=1;collapsible=1;childLayout=tableLayout;fixedRows=1;rowLines=0;fontStyle=1;align=center;resizeLast=1;html=1;" vertex="1" parent="1">
          <mxGeometry x="780" y="200" width="420" height="260" as="geometry" />
        </mxCell>
        <mxCell id="ubFg8cCTz5OX0tY9X4NB-27" value="" style="shape=tableRow;horizontal=0;startSize=0;swimlaneHead=0;swimlaneBody=0;fillColor=none;collapsible=0;dropTarget=0;points=[[0,0.5],[1,0.5]];portConstraint=eastwest;top=0;left=0;right=0;bottom=1;" vertex="1" parent="ubFg8cCTz5OX0tY9X4NB-26">
          <mxGeometry y="30" width="420" height="50" as="geometry" />
        </mxCell>
        <mxCell id="ubFg8cCTz5OX0tY9X4NB-28" value="PK" style="shape=partialRectangle;connectable=0;fillColor=none;top=0;left=0;bottom=0;right=0;fontStyle=1;overflow=hidden;whiteSpace=wrap;html=1;" vertex="1" parent="ubFg8cCTz5OX0tY9X4NB-27">
          <mxGeometry width="30" height="50" as="geometry">
            <mxRectangle width="30" height="50" as="alternateBounds" />
          </mxGeometry>
        </mxCell>
        <mxCell id="ubFg8cCTz5OX0tY9X4NB-29" value="&lt;span id=&quot;docs-internal-guid-2a1b02e7-7fff-1312-040c-3659f25a3bd1&quot; style=&quot;&quot;&gt;&lt;span style=&quot;font-size: 12pt; font-family: Arial, sans-serif; background-color: transparent; font-variant-numeric: normal; font-variant-east-asian: normal; font-variant-alternates: normal; font-variant-position: normal; text-decoration-line: none; vertical-align: baseline; white-space-collapse: preserve;&quot;&gt;CourseID INT AUTO_INCREMENT PRIMARY KEY,&lt;/span&gt;&lt;/span&gt;" style="shape=partialRectangle;connectable=0;fillColor=none;top=0;left=0;bottom=0;right=0;align=left;spacingLeft=6;fontStyle=5;overflow=hidden;whiteSpace=wrap;html=1;" vertex="1" parent="ubFg8cCTz5OX0tY9X4NB-27">
          <mxGeometry x="30" width="390" height="50" as="geometry">
            <mxRectangle width="390" height="50" as="alternateBounds" />
          </mxGeometry>
        </mxCell>
        <mxCell id="ubFg8cCTz5OX0tY9X4NB-30" value="" style="shape=tableRow;horizontal=0;startSize=0;swimlaneHead=0;swimlaneBody=0;fillColor=none;collapsible=0;dropTarget=0;points=[[0,0.5],[1,0.5]];portConstraint=eastwest;top=0;left=0;right=0;bottom=0;" vertex="1" parent="ubFg8cCTz5OX0tY9X4NB-26">
          <mxGeometry y="80" width="420" height="120" as="geometry" />
        </mxCell>
        <mxCell id="ubFg8cCTz5OX0tY9X4NB-31" value="" style="shape=partialRectangle;connectable=0;fillColor=none;top=0;left=0;bottom=0;right=0;editable=1;overflow=hidden;whiteSpace=wrap;html=1;" vertex="1" parent="ubFg8cCTz5OX0tY9X4NB-30">
          <mxGeometry width="30" height="120" as="geometry">
            <mxRectangle width="30" height="120" as="alternateBounds" />
          </mxGeometry>
        </mxCell>
        <mxCell id="ubFg8cCTz5OX0tY9X4NB-32" value="&lt;span id=&quot;docs-internal-guid-3f05a4d0-7fff-b908-06cd-d9424c4733d5&quot;&gt;&lt;p style=&quot;line-height:1.38;margin-top:0pt;margin-bottom:0pt;&quot; dir=&quot;ltr&quot;&gt;&lt;span style=&quot;font-size:12pt;font-family:Arial,sans-serif;color:#000000;background-color:transparent;font-weight:400;font-style:normal;font-variant:normal;text-decoration:none;vertical-align:baseline;white-space:pre;white-space:pre-wrap;&quot;&gt;    Title VARCHAR(255) NOT NULL,&lt;/span&gt;&lt;/p&gt;&lt;p style=&quot;line-height:1.38;margin-top:0pt;margin-bottom:0pt;&quot; dir=&quot;ltr&quot;&gt;&lt;span style=&quot;font-size:12pt;font-family:Arial,sans-serif;color:#000000;background-color:transparent;font-weight:400;font-style:normal;font-variant:normal;text-decoration:none;vertical-align:baseline;white-space:pre;white-space:pre-wrap;&quot;&gt;&lt;span style=&quot;white-space:pre;&quot; class=&quot;Apple-tab-span&quot;&gt;&#x9;&lt;/span&gt;&lt;/span&gt;&lt;/p&gt;&lt;p style=&quot;line-height:1.38;margin-top:0pt;margin-bottom:0pt;&quot; dir=&quot;ltr&quot;&gt;&lt;span style=&quot;font-size:12pt;font-family:Arial,sans-serif;color:#000000;background-color:transparent;font-weight:400;font-style:normal;font-variant:normal;text-decoration:none;vertical-align:baseline;white-space:pre;white-space:pre-wrap;&quot;&gt;&amp;nbsp;&amp;nbsp;&amp;nbsp;&amp;nbsp;Credits INT NOT NULL,&lt;/span&gt;&lt;span style=&quot;font-size:12pt;font-family:Arial,sans-serif;color:#000000;background-color:transparent;font-weight:400;font-style:normal;font-variant:normal;text-decoration:none;vertical-align:baseline;white-space:pre;white-space:pre-wrap;&quot;&gt;&lt;span style=&quot;white-space:pre;&quot; class=&quot;Apple-tab-span&quot;&gt;&#x9;&lt;/span&gt;&lt;/span&gt;&lt;/p&gt;&lt;p style=&quot;line-height:1.38;margin-top:0pt;margin-bottom:0pt;&quot; dir=&quot;ltr&quot;&gt;&lt;br&gt;&lt;/p&gt;&lt;/span&gt;" style="shape=partialRectangle;connectable=0;fillColor=none;top=0;left=0;bottom=0;right=0;align=left;spacingLeft=6;overflow=hidden;whiteSpace=wrap;html=1;" vertex="1" parent="ubFg8cCTz5OX0tY9X4NB-30">
          <mxGeometry x="30" width="390" height="120" as="geometry">
            <mxRectangle width="390" height="120" as="alternateBounds" />
          </mxGeometry>
        </mxCell>
        <mxCell id="ubFg8cCTz5OX0tY9X4NB-33" value="" style="shape=tableRow;horizontal=0;startSize=0;swimlaneHead=0;swimlaneBody=0;fillColor=none;collapsible=0;dropTarget=0;points=[[0,0.5],[1,0.5]];portConstraint=eastwest;top=0;left=0;right=0;bottom=0;" vertex="1" parent="ubFg8cCTz5OX0tY9X4NB-26">
          <mxGeometry y="200" width="420" height="40" as="geometry" />
        </mxCell>
        <mxCell id="ubFg8cCTz5OX0tY9X4NB-34" value="&lt;font style=&quot;font-size: 12px;&quot;&gt;&lt;b&gt;FK&lt;/b&gt;&lt;/font&gt;" style="shape=partialRectangle;connectable=0;fillColor=none;top=0;left=0;bottom=0;right=0;editable=1;overflow=hidden;whiteSpace=wrap;html=1;" vertex="1" parent="ubFg8cCTz5OX0tY9X4NB-33">
          <mxGeometry width="30" height="40" as="geometry">
            <mxRectangle width="30" height="40" as="alternateBounds" />
          </mxGeometry>
        </mxCell>
        <mxCell id="ubFg8cCTz5OX0tY9X4NB-35" value="&#xa;&lt;b style=&quot;forced-color-adjust: none; color: rgb(0, 0, 0); font-family: Helvetica; font-size: 12px; font-style: normal; font-variant-ligatures: normal; font-variant-caps: normal; letter-spacing: normal; orphans: 2; text-align: left; text-indent: 0px; text-transform: none; widows: 2; word-spacing: 0px; -webkit-text-stroke-width: 0px; white-space: normal; background-color: rgb(251, 251, 251); text-decoration-thickness: initial; text-decoration-style: initial; text-decoration-color: initial;&quot;&gt;&lt;span style=&quot;forced-color-adjust: none; font-variant-numeric: normal; font-variant-east-asian: normal; font-variant-alternates: normal; font-variant-position: normal; white-space-collapse: preserve; background-color: transparent; font-size: 12pt; font-family: Arial, sans-serif; vertical-align: baseline;&quot;&gt;&amp;nbsp;&amp;nbsp;&amp;nbsp;&amp;nbsp;InstructorID INT,&lt;/span&gt;&lt;span style=&quot;forced-color-adjust: none; font-variant-numeric: normal; font-variant-east-asian: normal; font-variant-alternates: normal; font-variant-position: normal; white-space-collapse: preserve; background-color: transparent; font-size: 12pt; font-family: Arial, sans-serif; vertical-align: baseline;&quot;&gt;&lt;span style=&quot;white-space: pre;&quot;&gt;&amp;nbsp;&amp;nbsp;&amp;nbsp;&amp;nbsp;&lt;/span&gt;&lt;/span&gt;&lt;/b&gt;&#xa;&#xa;" style="shape=partialRectangle;connectable=0;fillColor=none;top=0;left=0;bottom=0;right=0;align=left;spacingLeft=6;overflow=hidden;whiteSpace=wrap;html=1;" vertex="1" parent="ubFg8cCTz5OX0tY9X4NB-33">
          <mxGeometry x="30" width="390" height="40" as="geometry">
            <mxRectangle width="390" height="40" as="alternateBounds" />
          </mxGeometry>
        </mxCell>
        <mxCell id="ubFg8cCTz5OX0tY9X4NB-36" value="" style="shape=tableRow;horizontal=0;startSize=0;swimlaneHead=0;swimlaneBody=0;fillColor=none;collapsible=0;dropTarget=0;points=[[0,0.5],[1,0.5]];portConstraint=eastwest;top=0;left=0;right=0;bottom=0;" vertex="1" parent="ubFg8cCTz5OX0tY9X4NB-26">
          <mxGeometry y="240" width="420" height="20" as="geometry" />
        </mxCell>
        <mxCell id="ubFg8cCTz5OX0tY9X4NB-37" value="" style="shape=partialRectangle;connectable=0;fillColor=none;top=0;left=0;bottom=0;right=0;editable=1;overflow=hidden;whiteSpace=wrap;html=1;" vertex="1" parent="ubFg8cCTz5OX0tY9X4NB-36">
          <mxGeometry width="30" height="20" as="geometry">
            <mxRectangle width="30" height="20" as="alternateBounds" />
          </mxGeometry>
        </mxCell>
        <mxCell id="ubFg8cCTz5OX0tY9X4NB-38" value="&lt;div&gt;&lt;br/&gt;&lt;/div&gt;" style="shape=partialRectangle;connectable=0;fillColor=none;top=0;left=0;bottom=0;right=0;align=left;spacingLeft=6;overflow=hidden;whiteSpace=wrap;html=1;" vertex="1" parent="ubFg8cCTz5OX0tY9X4NB-36">
          <mxGeometry x="30" width="390" height="20" as="geometry">
            <mxRectangle width="390" height="20" as="alternateBounds" />
          </mxGeometry>
        </mxCell>
        <mxCell id="ubFg8cCTz5OX0tY9X4NB-39" value="&lt;span id=&quot;docs-internal-guid-9519b10b-7fff-72ff-e908-93e3487349bc&quot; style=&quot;font-weight:normal;&quot;&gt;&lt;span style=&quot;font-size: 12pt; font-family: Arial, sans-serif; background-color: transparent; font-variant-numeric: normal; font-variant-east-asian: normal; font-variant-alternates: normal; font-variant-position: normal; vertical-align: baseline; white-space: pre-wrap;&quot;&gt;Enrollment &lt;/span&gt;&lt;/span&gt;" style="shape=table;startSize=30;container=1;collapsible=1;childLayout=tableLayout;fixedRows=1;rowLines=0;fontStyle=1;align=center;resizeLast=1;html=1;" vertex="1" parent="1">
          <mxGeometry x="1020" y="585" width="500" height="200" as="geometry" />
        </mxCell>
        <mxCell id="ubFg8cCTz5OX0tY9X4NB-40" value="" style="shape=tableRow;horizontal=0;startSize=0;swimlaneHead=0;swimlaneBody=0;fillColor=none;collapsible=0;dropTarget=0;points=[[0,0.5],[1,0.5]];portConstraint=eastwest;top=0;left=0;right=0;bottom=1;" vertex="1" parent="ubFg8cCTz5OX0tY9X4NB-39">
          <mxGeometry y="30" width="500" height="50" as="geometry" />
        </mxCell>
        <mxCell id="ubFg8cCTz5OX0tY9X4NB-41" value="PK" style="shape=partialRectangle;connectable=0;fillColor=none;top=0;left=0;bottom=0;right=0;fontStyle=1;overflow=hidden;whiteSpace=wrap;html=1;" vertex="1" parent="ubFg8cCTz5OX0tY9X4NB-40">
          <mxGeometry width="30" height="50" as="geometry">
            <mxRectangle width="30" height="50" as="alternateBounds" />
          </mxGeometry>
        </mxCell>
        <mxCell id="ubFg8cCTz5OX0tY9X4NB-42" value="&lt;span id=&quot;docs-internal-guid-fd24024e-7fff-0282-915c-2a572d0c93df&quot; style=&quot;&quot;&gt;&lt;p style=&quot;line-height: 1.38; margin-top: 0pt; margin-bottom: 0pt;&quot; dir=&quot;ltr&quot;&gt;&lt;span style=&quot;font-size: 12pt; font-family: Arial, sans-serif; background-color: transparent; font-variant-numeric: normal; font-variant-east-asian: normal; font-variant-alternates: normal; font-variant-position: normal; text-decoration-line: none; vertical-align: baseline; white-space-collapse: preserve;&quot;&gt;&amp;nbsp;&amp;nbsp;&amp;nbsp;&amp;nbsp;EnrollmentID INT AUTO_INCREMENT PRIMARY KEY,&lt;/span&gt;&lt;span style=&quot;font-size: 12pt; font-family: Arial, sans-serif; background-color: transparent; font-variant-numeric: normal; font-variant-east-asian: normal; font-variant-alternates: normal; font-variant-position: normal; text-decoration-line: none; vertical-align: baseline; white-space-collapse: preserve;&quot;&gt;&lt;span style=&quot;text-wrap-mode: nowrap;&quot; class=&quot;Apple-tab-span&quot;&gt;&#x9;&lt;/span&gt;&lt;/span&gt;&lt;/p&gt;&lt;div style=&quot;font-weight: normal;&quot;&gt;&lt;br&gt;&lt;/div&gt;&lt;/span&gt;" style="shape=partialRectangle;connectable=0;fillColor=none;top=0;left=0;bottom=0;right=0;align=left;spacingLeft=6;fontStyle=5;overflow=hidden;whiteSpace=wrap;html=1;" vertex="1" parent="ubFg8cCTz5OX0tY9X4NB-40">
          <mxGeometry x="30" width="470" height="50" as="geometry">
            <mxRectangle width="470" height="50" as="alternateBounds" />
          </mxGeometry>
        </mxCell>
        <mxCell id="ubFg8cCTz5OX0tY9X4NB-43" value="" style="shape=tableRow;horizontal=0;startSize=0;swimlaneHead=0;swimlaneBody=0;fillColor=none;collapsible=0;dropTarget=0;points=[[0,0.5],[1,0.5]];portConstraint=eastwest;top=0;left=0;right=0;bottom=0;" vertex="1" parent="ubFg8cCTz5OX0tY9X4NB-39">
          <mxGeometry y="80" width="500" height="40" as="geometry" />
        </mxCell>
        <mxCell id="ubFg8cCTz5OX0tY9X4NB-44" value="&lt;b&gt;FK&lt;/b&gt;" style="shape=partialRectangle;connectable=0;fillColor=none;top=0;left=0;bottom=0;right=0;editable=1;overflow=hidden;whiteSpace=wrap;html=1;" vertex="1" parent="ubFg8cCTz5OX0tY9X4NB-43">
          <mxGeometry width="30" height="40" as="geometry">
            <mxRectangle width="30" height="40" as="alternateBounds" />
          </mxGeometry>
        </mxCell>
        <mxCell id="ubFg8cCTz5OX0tY9X4NB-45" value="&lt;b&gt;&lt;br&gt;&lt;span id=&quot;docs-internal-guid-02fadf43-7fff-8600-b158-53d7eae7b4cc&quot; style=&quot;&quot;&gt;&lt;p style=&quot;line-height:1.38;margin-top:0pt;margin-bottom:0pt;&quot; dir=&quot;ltr&quot;&gt;&lt;span style=&quot;font-size: 12pt; font-family: Arial, sans-serif; color: rgb(0, 0, 0); background-color: transparent; font-style: normal; font-variant: normal; text-decoration: none; vertical-align: baseline; white-space: pre-wrap;&quot;&gt;&amp;nbsp;&amp;nbsp;&amp;nbsp;&amp;nbsp;StudentID INT,&lt;/span&gt;&lt;span style=&quot;font-size: 12pt; font-family: Arial, sans-serif; color: rgb(0, 0, 0); background-color: transparent; font-style: normal; font-variant: normal; text-decoration: none; vertical-align: baseline; white-space: pre-wrap;&quot;&gt;&lt;span style=&quot;white-space: pre;&quot;&gt;&amp;nbsp;&amp;nbsp;&amp;nbsp;&amp;nbsp;&lt;/span&gt;&lt;/span&gt;&lt;/p&gt;&lt;/span&gt;&lt;/b&gt;&lt;div&gt;&lt;br&gt;&lt;/div&gt;" style="shape=partialRectangle;connectable=0;fillColor=none;top=0;left=0;bottom=0;right=0;align=left;spacingLeft=6;overflow=hidden;whiteSpace=wrap;html=1;" vertex="1" parent="ubFg8cCTz5OX0tY9X4NB-43">
          <mxGeometry x="30" width="470" height="40" as="geometry">
            <mxRectangle width="470" height="40" as="alternateBounds" />
          </mxGeometry>
        </mxCell>
        <mxCell id="ubFg8cCTz5OX0tY9X4NB-46" value="" style="shape=tableRow;horizontal=0;startSize=0;swimlaneHead=0;swimlaneBody=0;fillColor=none;collapsible=0;dropTarget=0;points=[[0,0.5],[1,0.5]];portConstraint=eastwest;top=0;left=0;right=0;bottom=0;" vertex="1" parent="ubFg8cCTz5OX0tY9X4NB-39">
          <mxGeometry y="120" width="500" height="40" as="geometry" />
        </mxCell>
        <mxCell id="ubFg8cCTz5OX0tY9X4NB-47" value="&lt;b&gt;FK&lt;/b&gt;" style="shape=partialRectangle;connectable=0;fillColor=none;top=0;left=0;bottom=0;right=0;editable=1;overflow=hidden;whiteSpace=wrap;html=1;" vertex="1" parent="ubFg8cCTz5OX0tY9X4NB-46">
          <mxGeometry width="30" height="40" as="geometry">
            <mxRectangle width="30" height="40" as="alternateBounds" />
          </mxGeometry>
        </mxCell>
        <mxCell id="ubFg8cCTz5OX0tY9X4NB-48" value="&lt;span id=&quot;docs-internal-guid-e72f3d15-7fff-8d42-8cd2-3475a9f72407&quot;&gt;&lt;p style=&quot;line-height:1.38;margin-top:0pt;margin-bottom:0pt;&quot; dir=&quot;ltr&quot;&gt;&lt;b&gt;&lt;span style=&quot;font-size: 12pt; font-family: Arial, sans-serif; background-color: transparent; font-variant-numeric: normal; font-variant-east-asian: normal; font-variant-alternates: normal; font-variant-position: normal; vertical-align: baseline; white-space-collapse: preserve;&quot;&gt;&amp;nbsp;&amp;nbsp;&amp;nbsp;&amp;nbsp;CourseID INT,&lt;/span&gt;&lt;span style=&quot;font-size: 12pt; font-family: Arial, sans-serif; background-color: transparent; font-variant-numeric: normal; font-variant-east-asian: normal; font-variant-alternates: normal; font-variant-position: normal; vertical-align: baseline; white-space-collapse: preserve;&quot;&gt;&lt;span style=&quot;text-wrap-mode: nowrap;&quot; class=&quot;Apple-tab-span&quot;&gt;&#x9;&lt;/span&gt;&lt;/span&gt;&lt;/b&gt;&lt;/p&gt;&lt;/span&gt;" style="shape=partialRectangle;connectable=0;fillColor=none;top=0;left=0;bottom=0;right=0;align=left;spacingLeft=6;overflow=hidden;whiteSpace=wrap;html=1;" vertex="1" parent="ubFg8cCTz5OX0tY9X4NB-46">
          <mxGeometry x="30" width="470" height="40" as="geometry">
            <mxRectangle width="470" height="40" as="alternateBounds" />
          </mxGeometry>
        </mxCell>
        <mxCell id="ubFg8cCTz5OX0tY9X4NB-49" value="" style="shape=tableRow;horizontal=0;startSize=0;swimlaneHead=0;swimlaneBody=0;fillColor=none;collapsible=0;dropTarget=0;points=[[0,0.5],[1,0.5]];portConstraint=eastwest;top=0;left=0;right=0;bottom=0;" vertex="1" parent="ubFg8cCTz5OX0tY9X4NB-39">
          <mxGeometry y="160" width="500" height="40" as="geometry" />
        </mxCell>
        <mxCell id="ubFg8cCTz5OX0tY9X4NB-50" value="" style="shape=partialRectangle;connectable=0;fillColor=none;top=0;left=0;bottom=0;right=0;editable=1;overflow=hidden;whiteSpace=wrap;html=1;" vertex="1" parent="ubFg8cCTz5OX0tY9X4NB-49">
          <mxGeometry width="30" height="40" as="geometry">
            <mxRectangle width="30" height="40" as="alternateBounds" />
          </mxGeometry>
        </mxCell>
        <mxCell id="ubFg8cCTz5OX0tY9X4NB-51" value="&lt;br&gt;&lt;b id=&quot;docs-internal-guid-7ae80a6f-7fff-93c9-376d-a43c8a3999cb&quot; style=&quot;font-weight: normal;&quot;&gt;&lt;p style=&quot;line-height:1.38;margin-top:0pt;margin-bottom:0pt;&quot; dir=&quot;ltr&quot;&gt;&lt;span style=&quot;font-size: 12pt; font-family: Arial, sans-serif; color: rgb(0, 0, 0); background-color: transparent; font-style: normal; font-variant: normal; text-decoration: none; vertical-align: baseline; white-space: pre-wrap; font-weight: 400;&quot;&gt;&amp;nbsp;&amp;nbsp;&amp;nbsp;&amp;nbsp;EnrollmentDate DATE NOT NULL,&lt;/span&gt;&lt;span style=&quot;font-size: 12pt; font-family: Arial, sans-serif; color: rgb(0, 0, 0); background-color: transparent; font-style: normal; font-variant: normal; text-decoration: none; vertical-align: baseline; white-space: pre-wrap; font-weight: 400;&quot;&gt;&lt;span style=&quot;white-space: pre;&quot;&gt;&amp;nbsp;&amp;nbsp;&amp;nbsp;&amp;nbsp;&lt;/span&gt;&lt;/span&gt;&lt;/p&gt;&lt;/b&gt;&lt;div&gt;&lt;br&gt;&lt;/div&gt;" style="shape=partialRectangle;connectable=0;fillColor=none;top=0;left=0;bottom=0;right=0;align=left;spacingLeft=6;overflow=hidden;whiteSpace=wrap;html=1;" vertex="1" parent="ubFg8cCTz5OX0tY9X4NB-49">
          <mxGeometry x="30" width="470" height="40" as="geometry">
            <mxRectangle width="470" height="40" as="alternateBounds" />
          </mxGeometry>
        </mxCell>
        <mxCell id="ubFg8cCTz5OX0tY9X4NB-52" value="&lt;span id=&quot;docs-internal-guid-4c42797c-7fff-4fe1-b467-970d176ccedd&quot; style=&quot;font-weight:normal;&quot;&gt;&lt;span style=&quot;font-size: 12pt; font-family: Arial, sans-serif; background-color: transparent; font-variant-numeric: normal; font-variant-east-asian: normal; font-variant-alternates: normal; font-variant-position: normal; vertical-align: baseline; white-space: pre-wrap;&quot;&gt;Student &lt;/span&gt;&lt;/span&gt;" style="shape=table;startSize=20;container=1;collapsible=1;childLayout=tableLayout;fixedRows=1;rowLines=0;fontStyle=1;align=center;resizeLast=1;html=1;" vertex="1" parent="1">
          <mxGeometry x="210" y="730" width="500" height="200" as="geometry" />
        </mxCell>
        <mxCell id="ubFg8cCTz5OX0tY9X4NB-53" value="" style="shape=tableRow;horizontal=0;startSize=0;swimlaneHead=0;swimlaneBody=0;fillColor=none;collapsible=0;dropTarget=0;points=[[0,0.5],[1,0.5]];portConstraint=eastwest;top=0;left=0;right=0;bottom=1;" vertex="1" parent="ubFg8cCTz5OX0tY9X4NB-52">
          <mxGeometry y="20" width="500" height="50" as="geometry" />
        </mxCell>
        <mxCell id="ubFg8cCTz5OX0tY9X4NB-54" value="PK" style="shape=partialRectangle;connectable=0;fillColor=none;top=0;left=0;bottom=0;right=0;fontStyle=1;overflow=hidden;whiteSpace=wrap;html=1;" vertex="1" parent="ubFg8cCTz5OX0tY9X4NB-53">
          <mxGeometry width="30" height="50" as="geometry">
            <mxRectangle width="30" height="50" as="alternateBounds" />
          </mxGeometry>
        </mxCell>
        <mxCell id="ubFg8cCTz5OX0tY9X4NB-55" value="&lt;span id=&quot;docs-internal-guid-fd24024e-7fff-0282-915c-2a572d0c93df&quot; style=&quot;&quot;&gt;&lt;p style=&quot;line-height: 1.38; margin-top: 0pt; margin-bottom: 0pt;&quot; dir=&quot;ltr&quot;&gt;&lt;span id=&quot;docs-internal-guid-c2567905-7fff-ab98-73a8-05ef215165c6&quot; style=&quot;&quot;&gt;&lt;span style=&quot;font-size: 12pt; font-family: Arial, sans-serif; background-color: transparent; font-variant-numeric: normal; font-variant-east-asian: normal; font-variant-alternates: normal; font-variant-position: normal; text-decoration-line: none; vertical-align: baseline; white-space-collapse: preserve;&quot;&gt;StudentID INT AUTO_INCREMENT PRIMARY KEY,&lt;/span&gt;&lt;/span&gt;&lt;/p&gt;&lt;/span&gt;" style="shape=partialRectangle;connectable=0;fillColor=none;top=0;left=0;bottom=0;right=0;align=left;spacingLeft=6;fontStyle=5;overflow=hidden;whiteSpace=wrap;html=1;" vertex="1" parent="ubFg8cCTz5OX0tY9X4NB-53">
          <mxGeometry x="30" width="470" height="50" as="geometry">
            <mxRectangle width="470" height="50" as="alternateBounds" />
          </mxGeometry>
        </mxCell>
        <mxCell id="ubFg8cCTz5OX0tY9X4NB-56" value="" style="shape=tableRow;horizontal=0;startSize=0;swimlaneHead=0;swimlaneBody=0;fillColor=none;collapsible=0;dropTarget=0;points=[[0,0.5],[1,0.5]];portConstraint=eastwest;top=0;left=0;right=0;bottom=0;" vertex="1" parent="ubFg8cCTz5OX0tY9X4NB-52">
          <mxGeometry y="70" width="500" height="40" as="geometry" />
        </mxCell>
        <mxCell id="ubFg8cCTz5OX0tY9X4NB-57" value="&lt;b&gt;&amp;nbsp;&lt;/b&gt;" style="shape=partialRectangle;connectable=0;fillColor=none;top=0;left=0;bottom=0;right=0;editable=1;overflow=hidden;whiteSpace=wrap;html=1;" vertex="1" parent="ubFg8cCTz5OX0tY9X4NB-56">
          <mxGeometry width="30" height="40" as="geometry">
            <mxRectangle width="30" height="40" as="alternateBounds" />
          </mxGeometry>
        </mxCell>
        <mxCell id="ubFg8cCTz5OX0tY9X4NB-58" value="&lt;div&gt;&lt;span id=&quot;docs-internal-guid-52836f9c-7fff-c87f-9569-0a85a26941a2&quot;&gt;&lt;p style=&quot;line-height:1.38;margin-top:0pt;margin-bottom:0pt;&quot; dir=&quot;ltr&quot;&gt;&lt;span style=&quot;font-size: 12pt; font-family: Arial, sans-serif; background-color: transparent; font-variant-numeric: normal; font-variant-east-asian: normal; font-variant-alternates: normal; font-variant-position: normal; vertical-align: baseline; white-space-collapse: preserve;&quot;&gt;&amp;nbsp;&amp;nbsp;&amp;nbsp;&amp;nbsp;Name VARCHAR(255) NOT NULL,&lt;/span&gt;&lt;span style=&quot;font-size: 12pt; font-family: Arial, sans-serif; background-color: transparent; font-variant-numeric: normal; font-variant-east-asian: normal; font-variant-alternates: normal; font-variant-position: normal; vertical-align: baseline; white-space-collapse: preserve;&quot;&gt;&lt;span style=&quot;text-wrap-mode: nowrap;&quot; class=&quot;Apple-tab-span&quot;&gt;&#x9;&lt;/span&gt;&lt;/span&gt;&lt;/p&gt;&lt;div&gt;&lt;br&gt;&lt;/div&gt;&lt;/span&gt;&lt;/div&gt;" style="shape=partialRectangle;connectable=0;fillColor=none;top=0;left=0;bottom=0;right=0;align=left;spacingLeft=6;overflow=hidden;whiteSpace=wrap;html=1;" vertex="1" parent="ubFg8cCTz5OX0tY9X4NB-56">
          <mxGeometry x="30" width="470" height="40" as="geometry">
            <mxRectangle width="470" height="40" as="alternateBounds" />
          </mxGeometry>
        </mxCell>
        <mxCell id="ubFg8cCTz5OX0tY9X4NB-59" value="" style="shape=tableRow;horizontal=0;startSize=0;swimlaneHead=0;swimlaneBody=0;fillColor=none;collapsible=0;dropTarget=0;points=[[0,0.5],[1,0.5]];portConstraint=eastwest;top=0;left=0;right=0;bottom=0;" vertex="1" parent="ubFg8cCTz5OX0tY9X4NB-52">
          <mxGeometry y="110" width="500" height="40" as="geometry" />
        </mxCell>
        <mxCell id="ubFg8cCTz5OX0tY9X4NB-60" value="&lt;b&gt;&amp;nbsp;&lt;/b&gt;" style="shape=partialRectangle;connectable=0;fillColor=none;top=0;left=0;bottom=0;right=0;editable=1;overflow=hidden;whiteSpace=wrap;html=1;" vertex="1" parent="ubFg8cCTz5OX0tY9X4NB-59">
          <mxGeometry width="30" height="40" as="geometry">
            <mxRectangle width="30" height="40" as="alternateBounds" />
          </mxGeometry>
        </mxCell>
        <mxCell id="ubFg8cCTz5OX0tY9X4NB-61" value="&lt;span id=&quot;docs-internal-guid-e72f3d15-7fff-8d42-8cd2-3475a9f72407&quot;&gt;&lt;p style=&quot;line-height:1.38;margin-top:0pt;margin-bottom:0pt;&quot; dir=&quot;ltr&quot;&gt;&lt;span id=&quot;docs-internal-guid-dd613e4d-7fff-0f55-76fe-f93ed9d9e2fb&quot;&gt;&lt;/span&gt;&lt;/p&gt;&lt;p style=&quot;line-height:1.38;margin-top:0pt;margin-bottom:0pt;&quot; dir=&quot;ltr&quot;&gt;&lt;span style=&quot;font-size:12pt;font-family:Arial,sans-serif;color:#000000;background-color:transparent;font-weight:400;font-style:normal;font-variant:normal;text-decoration:none;vertical-align:baseline;white-space:pre;white-space:pre-wrap;&quot;&gt;&amp;nbsp;&amp;nbsp;&amp;nbsp;&amp;nbsp;Email VARCHAR(255) NOT NULL UNIQUE,&lt;/span&gt;&lt;span style=&quot;font-size:12pt;font-family:Arial,sans-serif;color:#000000;background-color:transparent;font-weight:400;font-style:normal;font-variant:normal;text-decoration:none;vertical-align:baseline;white-space:pre;white-space:pre-wrap;&quot;&gt;&lt;span style=&quot;white-space:pre;&quot; class=&quot;Apple-tab-span&quot;&gt;&#x9;&lt;/span&gt;&lt;/span&gt;&lt;/p&gt;&lt;/span&gt;" style="shape=partialRectangle;connectable=0;fillColor=none;top=0;left=0;bottom=0;right=0;align=left;spacingLeft=6;overflow=hidden;whiteSpace=wrap;html=1;" vertex="1" parent="ubFg8cCTz5OX0tY9X4NB-59">
          <mxGeometry x="30" width="470" height="40" as="geometry">
            <mxRectangle width="470" height="40" as="alternateBounds" />
          </mxGeometry>
        </mxCell>
        <mxCell id="ubFg8cCTz5OX0tY9X4NB-62" value="" style="shape=tableRow;horizontal=0;startSize=0;swimlaneHead=0;swimlaneBody=0;fillColor=none;collapsible=0;dropTarget=0;points=[[0,0.5],[1,0.5]];portConstraint=eastwest;top=0;left=0;right=0;bottom=0;" vertex="1" parent="ubFg8cCTz5OX0tY9X4NB-52">
          <mxGeometry y="150" width="500" height="40" as="geometry" />
        </mxCell>
        <mxCell id="ubFg8cCTz5OX0tY9X4NB-63" value="" style="shape=partialRectangle;connectable=0;fillColor=none;top=0;left=0;bottom=0;right=0;editable=1;overflow=hidden;whiteSpace=wrap;html=1;" vertex="1" parent="ubFg8cCTz5OX0tY9X4NB-62">
          <mxGeometry width="30" height="40" as="geometry">
            <mxRectangle width="30" height="40" as="alternateBounds" />
          </mxGeometry>
        </mxCell>
        <mxCell id="ubFg8cCTz5OX0tY9X4NB-64" value="&lt;br&gt;&lt;b id=&quot;docs-internal-guid-7ae80a6f-7fff-93c9-376d-a43c8a3999cb&quot; style=&quot;font-weight: normal;&quot;&gt;&lt;p style=&quot;line-height:1.38;margin-top:0pt;margin-bottom:0pt;&quot; dir=&quot;ltr&quot;&gt;&lt;span id=&quot;docs-internal-guid-5ea95c64-7fff-69a3-25be-405226b86a94&quot;&gt;&lt;/span&gt;&lt;/p&gt;&lt;p style=&quot;line-height:1.38;margin-top:0pt;margin-bottom:0pt;&quot; dir=&quot;ltr&quot;&gt;&lt;span style=&quot;font-size:12pt;font-family:Arial,sans-serif;color:#000000;background-color:transparent;font-weight:400;font-style:normal;font-variant:normal;text-decoration:none;vertical-align:baseline;white-space:pre;white-space:pre-wrap;&quot;&gt;&amp;nbsp;&amp;nbsp;&amp;nbsp;&amp;nbsp;Phone VARCHAR(15)&lt;/span&gt;&lt;span style=&quot;font-size:12pt;font-family:Arial,sans-serif;color:#000000;background-color:transparent;font-weight:400;font-style:normal;font-variant:normal;text-decoration:none;vertical-align:baseline;white-space:pre;white-space:pre-wrap;&quot;&gt;&lt;span style=&quot;white-space:pre;&quot; class=&quot;Apple-tab-span&quot;&gt;&#x9;&lt;/span&gt;&lt;/span&gt;&lt;/p&gt;&lt;/b&gt;" style="shape=partialRectangle;connectable=0;fillColor=none;top=0;left=0;bottom=0;right=0;align=left;spacingLeft=6;overflow=hidden;whiteSpace=wrap;html=1;" vertex="1" parent="ubFg8cCTz5OX0tY9X4NB-62">
          <mxGeometry x="30" width="470" height="40" as="geometry">
            <mxRectangle width="470" height="40" as="alternateBounds" />
          </mxGeometry>
        </mxCell>
        <mxCell id="ubFg8cCTz5OX0tY9X4NB-65" value="" style="edgeStyle=entityRelationEdgeStyle;fontSize=12;html=1;endArrow=ERoneToMany;rounded=0;exitX=1.005;exitY=0.743;exitDx=0;exitDy=0;exitPerimeter=0;entryX=0;entryY=0.5;entryDx=0;entryDy=0;" edge="1" parent="1" source="ubFg8cCTz5OX0tY9X4NB-17" target="ubFg8cCTz5OX0tY9X4NB-30">
          <mxGeometry width="100" height="100" relative="1" as="geometry">
            <mxPoint x="700" y="590" as="sourcePoint" />
            <mxPoint x="800" y="490" as="targetPoint" />
            <Array as="points">
              <mxPoint x="740" y="520" />
            </Array>
          </mxGeometry>
        </mxCell>
        <mxCell id="ubFg8cCTz5OX0tY9X4NB-66" value="" style="edgeStyle=entityRelationEdgeStyle;fontSize=12;html=1;endArrow=ERoneToMany;rounded=0;exitX=0.535;exitY=1.215;exitDx=0;exitDy=0;exitPerimeter=0;" edge="1" parent="1">
          <mxGeometry width="100" height="100" relative="1" as="geometry">
            <mxPoint x="1204.6999999999998" y="390.00000000000006" as="sourcePoint" />
            <mxPoint x="1010" y="640" as="targetPoint" />
            <Array as="points">
              <mxPoint x="1298" y="605.7" />
              <mxPoint x="1220" y="420" />
            </Array>
          </mxGeometry>
        </mxCell>
        <mxCell id="ubFg8cCTz5OX0tY9X4NB-67" value="" style="edgeStyle=entityRelationEdgeStyle;fontSize=12;html=1;endArrow=ERoneToMany;rounded=0;entryX=-0.002;entryY=-0.005;entryDx=0;entryDy=0;entryPerimeter=0;" edge="1" parent="1" source="ubFg8cCTz5OX0tY9X4NB-62" target="ubFg8cCTz5OX0tY9X4NB-49">
          <mxGeometry width="100" height="100" relative="1" as="geometry">
            <mxPoint x="710" y="940" as="sourcePoint" />
            <mxPoint x="810" y="840" as="targetPoint" />
            <Array as="points">
              <mxPoint x="720" y="870" />
              <mxPoint x="1010" y="730" />
              <mxPoint x="990" y="750" />
            </Array>
          </mxGeometry>
        </mxCell>
      </root>
    </mxGraphModel>
  </diagram>
</mxfile>
